<mxfile host="app.diagrams.net" modified="2021-10-09T03:28:23.040Z" agent="5.0 (Windows NT 10.0; Win64; x64) AppleWebKit/537.36 (KHTML, like Gecko) Chrome/94.0.4606.71 Safari/537.36" etag="otd_EVHL5N7o2tJK8QCf" version="15.3.5" type="github">
  <diagram id="WRPDDCgANveFfhrbrllu" name="Page-1">
    <mxGraphModel dx="1824" dy="2085" grid="1" gridSize="10" guides="1" tooltips="1" connect="1" arrows="1" fold="1" page="1" pageScale="1" pageWidth="827" pageHeight="1169" math="0" shadow="0">
      <root>
        <mxCell id="0" />
        <mxCell id="1" parent="0" />
        <mxCell id="irgdS5TOoOP_sUBfPEMx-3" value="" style="edgeStyle=none;curved=1;rounded=0;orthogonalLoop=1;jettySize=auto;html=1;endArrow=open;startSize=14;endSize=14;sourcePerimeterSpacing=8;targetPerimeterSpacing=8;" edge="1" parent="1" source="irgdS5TOoOP_sUBfPEMx-1" target="irgdS5TOoOP_sUBfPEMx-2">
          <mxGeometry relative="1" as="geometry">
            <Array as="points">
              <mxPoint x="140" y="-180" />
            </Array>
          </mxGeometry>
        </mxCell>
        <mxCell id="irgdS5TOoOP_sUBfPEMx-5" value="" style="edgeStyle=none;curved=1;rounded=0;orthogonalLoop=1;jettySize=auto;html=1;endArrow=open;startSize=14;endSize=14;sourcePerimeterSpacing=8;targetPerimeterSpacing=8;" edge="1" parent="1" source="irgdS5TOoOP_sUBfPEMx-1" target="irgdS5TOoOP_sUBfPEMx-4">
          <mxGeometry relative="1" as="geometry" />
        </mxCell>
        <mxCell id="irgdS5TOoOP_sUBfPEMx-48" value="" style="edgeStyle=none;curved=1;rounded=0;orthogonalLoop=1;jettySize=auto;html=1;endArrow=open;startSize=14;endSize=14;sourcePerimeterSpacing=8;targetPerimeterSpacing=8;" edge="1" parent="1" source="irgdS5TOoOP_sUBfPEMx-1" target="irgdS5TOoOP_sUBfPEMx-47">
          <mxGeometry relative="1" as="geometry">
            <Array as="points">
              <mxPoint x="110" y="340" />
            </Array>
          </mxGeometry>
        </mxCell>
        <mxCell id="irgdS5TOoOP_sUBfPEMx-1" value="SDC / EDC" style="rounded=0;whiteSpace=wrap;html=1;hachureGap=4;pointerEvents=0;" vertex="1" parent="1">
          <mxGeometry x="120" y="70" width="120" height="30" as="geometry" />
        </mxCell>
        <mxCell id="irgdS5TOoOP_sUBfPEMx-27" value="" style="edgeStyle=none;curved=1;rounded=0;orthogonalLoop=1;jettySize=auto;html=1;endArrow=open;startSize=14;endSize=14;sourcePerimeterSpacing=8;targetPerimeterSpacing=8;" edge="1" parent="1" source="irgdS5TOoOP_sUBfPEMx-2" target="irgdS5TOoOP_sUBfPEMx-26">
          <mxGeometry relative="1" as="geometry" />
        </mxCell>
        <mxCell id="irgdS5TOoOP_sUBfPEMx-35" value="" style="edgeStyle=none;curved=1;rounded=0;orthogonalLoop=1;jettySize=auto;html=1;endArrow=open;startSize=14;endSize=14;sourcePerimeterSpacing=8;targetPerimeterSpacing=8;" edge="1" parent="1" source="irgdS5TOoOP_sUBfPEMx-2" target="irgdS5TOoOP_sUBfPEMx-26">
          <mxGeometry relative="1" as="geometry" />
        </mxCell>
        <mxCell id="irgdS5TOoOP_sUBfPEMx-37" value="" style="edgeStyle=none;curved=1;rounded=0;orthogonalLoop=1;jettySize=auto;html=1;endArrow=open;startSize=14;endSize=14;sourcePerimeterSpacing=8;targetPerimeterSpacing=8;" edge="1" parent="1" source="irgdS5TOoOP_sUBfPEMx-2" target="irgdS5TOoOP_sUBfPEMx-36">
          <mxGeometry relative="1" as="geometry" />
        </mxCell>
        <mxCell id="irgdS5TOoOP_sUBfPEMx-77" value="" style="edgeStyle=none;curved=1;rounded=0;orthogonalLoop=1;jettySize=auto;html=1;endArrow=open;startSize=14;endSize=14;sourcePerimeterSpacing=8;targetPerimeterSpacing=8;" edge="1" parent="1" source="irgdS5TOoOP_sUBfPEMx-2" target="irgdS5TOoOP_sUBfPEMx-76">
          <mxGeometry relative="1" as="geometry" />
        </mxCell>
        <mxCell id="irgdS5TOoOP_sUBfPEMx-2" value="表单设计器" style="rounded=0;whiteSpace=wrap;html=1;hachureGap=4;pointerEvents=0;" vertex="1" parent="1">
          <mxGeometry x="280" y="-310" width="120" height="30" as="geometry" />
        </mxCell>
        <mxCell id="irgdS5TOoOP_sUBfPEMx-29" value="" style="edgeStyle=none;curved=1;rounded=0;orthogonalLoop=1;jettySize=auto;html=1;endArrow=open;startSize=14;endSize=14;sourcePerimeterSpacing=8;targetPerimeterSpacing=8;" edge="1" parent="1" source="irgdS5TOoOP_sUBfPEMx-4" target="irgdS5TOoOP_sUBfPEMx-28">
          <mxGeometry relative="1" as="geometry">
            <Array as="points">
              <mxPoint x="417" y="-50" />
            </Array>
          </mxGeometry>
        </mxCell>
        <mxCell id="irgdS5TOoOP_sUBfPEMx-32" value="" style="edgeStyle=none;curved=1;rounded=0;orthogonalLoop=1;jettySize=auto;html=1;endArrow=open;startSize=14;endSize=14;sourcePerimeterSpacing=8;targetPerimeterSpacing=8;" edge="1" parent="1" source="irgdS5TOoOP_sUBfPEMx-4" target="irgdS5TOoOP_sUBfPEMx-31">
          <mxGeometry relative="1" as="geometry" />
        </mxCell>
        <mxCell id="irgdS5TOoOP_sUBfPEMx-54" value="" style="edgeStyle=none;curved=1;rounded=0;orthogonalLoop=1;jettySize=auto;html=1;endArrow=open;startSize=14;endSize=14;sourcePerimeterSpacing=8;targetPerimeterSpacing=8;" edge="1" parent="1" source="irgdS5TOoOP_sUBfPEMx-4" target="irgdS5TOoOP_sUBfPEMx-31">
          <mxGeometry relative="1" as="geometry" />
        </mxCell>
        <mxCell id="irgdS5TOoOP_sUBfPEMx-56" value="" style="edgeStyle=none;curved=1;rounded=0;orthogonalLoop=1;jettySize=auto;html=1;endArrow=open;startSize=14;endSize=14;sourcePerimeterSpacing=8;targetPerimeterSpacing=8;" edge="1" parent="1" source="irgdS5TOoOP_sUBfPEMx-4" target="irgdS5TOoOP_sUBfPEMx-55">
          <mxGeometry relative="1" as="geometry">
            <Array as="points">
              <mxPoint x="420" y="210" />
            </Array>
          </mxGeometry>
        </mxCell>
        <mxCell id="irgdS5TOoOP_sUBfPEMx-4" value="数据录入" style="rounded=0;whiteSpace=wrap;html=1;hachureGap=4;pointerEvents=0;" vertex="1" parent="1">
          <mxGeometry x="340" y="80" width="120" height="30" as="geometry" />
        </mxCell>
        <mxCell id="irgdS5TOoOP_sUBfPEMx-9" value="" style="edgeStyle=none;curved=1;rounded=0;orthogonalLoop=1;jettySize=auto;html=1;endArrow=open;startSize=14;endSize=14;sourcePerimeterSpacing=8;targetPerimeterSpacing=8;" edge="1" parent="1" source="irgdS5TOoOP_sUBfPEMx-7" target="irgdS5TOoOP_sUBfPEMx-8">
          <mxGeometry relative="1" as="geometry" />
        </mxCell>
        <mxCell id="irgdS5TOoOP_sUBfPEMx-23" value="" style="edgeStyle=none;curved=1;rounded=0;orthogonalLoop=1;jettySize=auto;html=1;endArrow=open;startSize=14;endSize=14;sourcePerimeterSpacing=8;targetPerimeterSpacing=8;" edge="1" parent="1" source="irgdS5TOoOP_sUBfPEMx-7" target="irgdS5TOoOP_sUBfPEMx-22">
          <mxGeometry relative="1" as="geometry" />
        </mxCell>
        <mxCell id="irgdS5TOoOP_sUBfPEMx-58" value="" style="edgeStyle=none;curved=1;rounded=0;orthogonalLoop=1;jettySize=auto;html=1;endArrow=open;startSize=14;endSize=14;sourcePerimeterSpacing=8;targetPerimeterSpacing=8;" edge="1" parent="1" source="irgdS5TOoOP_sUBfPEMx-7" target="irgdS5TOoOP_sUBfPEMx-57">
          <mxGeometry relative="1" as="geometry" />
        </mxCell>
        <mxCell id="irgdS5TOoOP_sUBfPEMx-85" value="" style="edgeStyle=none;curved=1;rounded=0;orthogonalLoop=1;jettySize=auto;html=1;endArrow=open;startSize=14;endSize=14;sourcePerimeterSpacing=8;targetPerimeterSpacing=8;" edge="1" parent="1" source="irgdS5TOoOP_sUBfPEMx-7" target="irgdS5TOoOP_sUBfPEMx-84">
          <mxGeometry relative="1" as="geometry" />
        </mxCell>
        <mxCell id="irgdS5TOoOP_sUBfPEMx-7" value="服务器" style="rounded=1;whiteSpace=wrap;html=1;hachureGap=4;pointerEvents=0;" vertex="1" parent="1">
          <mxGeometry x="90" y="1010" width="120" height="30" as="geometry" />
        </mxCell>
        <mxCell id="irgdS5TOoOP_sUBfPEMx-11" value="" style="edgeStyle=none;curved=1;rounded=0;orthogonalLoop=1;jettySize=auto;html=1;endArrow=open;startSize=14;endSize=14;sourcePerimeterSpacing=8;targetPerimeterSpacing=8;" edge="1" parent="1" source="irgdS5TOoOP_sUBfPEMx-8" target="irgdS5TOoOP_sUBfPEMx-10">
          <mxGeometry relative="1" as="geometry" />
        </mxCell>
        <mxCell id="irgdS5TOoOP_sUBfPEMx-20" value="" style="edgeStyle=none;curved=1;rounded=0;orthogonalLoop=1;jettySize=auto;html=1;endArrow=open;startSize=14;endSize=14;sourcePerimeterSpacing=8;targetPerimeterSpacing=8;" edge="1" parent="1" source="irgdS5TOoOP_sUBfPEMx-8" target="irgdS5TOoOP_sUBfPEMx-19">
          <mxGeometry relative="1" as="geometry" />
        </mxCell>
        <mxCell id="irgdS5TOoOP_sUBfPEMx-21" value="" style="edgeStyle=none;curved=1;rounded=0;orthogonalLoop=1;jettySize=auto;html=1;endArrow=open;startSize=14;endSize=14;sourcePerimeterSpacing=8;targetPerimeterSpacing=8;" edge="1" parent="1" source="irgdS5TOoOP_sUBfPEMx-8" target="irgdS5TOoOP_sUBfPEMx-19">
          <mxGeometry relative="1" as="geometry" />
        </mxCell>
        <mxCell id="irgdS5TOoOP_sUBfPEMx-73" value="" style="edgeStyle=none;curved=1;rounded=0;orthogonalLoop=1;jettySize=auto;html=1;endArrow=open;startSize=14;endSize=14;sourcePerimeterSpacing=8;targetPerimeterSpacing=8;" edge="1" parent="1" source="irgdS5TOoOP_sUBfPEMx-8" target="irgdS5TOoOP_sUBfPEMx-72">
          <mxGeometry relative="1" as="geometry" />
        </mxCell>
        <mxCell id="irgdS5TOoOP_sUBfPEMx-75" value="" style="edgeStyle=none;curved=1;rounded=0;orthogonalLoop=1;jettySize=auto;html=1;endArrow=open;startSize=14;endSize=14;sourcePerimeterSpacing=8;targetPerimeterSpacing=8;" edge="1" parent="1" source="irgdS5TOoOP_sUBfPEMx-8" target="irgdS5TOoOP_sUBfPEMx-74">
          <mxGeometry relative="1" as="geometry" />
        </mxCell>
        <mxCell id="irgdS5TOoOP_sUBfPEMx-8" value="凌先" style="whiteSpace=wrap;html=1;rounded=1;hachureGap=4;" vertex="1" parent="1">
          <mxGeometry x="310" y="920" width="120" height="30" as="geometry" />
        </mxCell>
        <mxCell id="irgdS5TOoOP_sUBfPEMx-10" value="官网" style="whiteSpace=wrap;html=1;rounded=1;hachureGap=4;" vertex="1" parent="1">
          <mxGeometry x="770" y="790" width="120" height="40" as="geometry" />
        </mxCell>
        <mxCell id="irgdS5TOoOP_sUBfPEMx-14" value="" style="edgeStyle=none;curved=1;rounded=0;orthogonalLoop=1;jettySize=auto;html=1;endArrow=open;startSize=14;endSize=14;sourcePerimeterSpacing=8;targetPerimeterSpacing=8;" edge="1" parent="1" source="irgdS5TOoOP_sUBfPEMx-12" target="irgdS5TOoOP_sUBfPEMx-13">
          <mxGeometry relative="1" as="geometry" />
        </mxCell>
        <mxCell id="irgdS5TOoOP_sUBfPEMx-12" value="CTM" style="rounded=0;whiteSpace=wrap;html=1;hachureGap=4;pointerEvents=0;" vertex="1" parent="1">
          <mxGeometry x="110" y="640" width="120" height="30" as="geometry" />
        </mxCell>
        <mxCell id="irgdS5TOoOP_sUBfPEMx-13" value="swagger接口整理" style="rounded=0;whiteSpace=wrap;html=1;hachureGap=4;pointerEvents=0;" vertex="1" parent="1">
          <mxGeometry x="340" y="640" width="120" height="30" as="geometry" />
        </mxCell>
        <mxCell id="irgdS5TOoOP_sUBfPEMx-15" value="框架权限 /&amp;nbsp; 组件 / 工具类" style="rounded=0;whiteSpace=wrap;html=1;hachureGap=4;pointerEvents=0;" vertex="1" parent="1">
          <mxGeometry x="110" y="740" width="120" height="40" as="geometry" />
        </mxCell>
        <mxCell id="irgdS5TOoOP_sUBfPEMx-19" value="GoodTrials" style="whiteSpace=wrap;html=1;rounded=1;hachureGap=4;" vertex="1" parent="1">
          <mxGeometry x="770" y="900" width="120" height="35" as="geometry" />
        </mxCell>
        <mxCell id="irgdS5TOoOP_sUBfPEMx-25" value="" style="edgeStyle=none;curved=1;rounded=0;orthogonalLoop=1;jettySize=auto;html=1;endArrow=open;startSize=14;endSize=14;sourcePerimeterSpacing=8;targetPerimeterSpacing=8;" edge="1" parent="1" source="irgdS5TOoOP_sUBfPEMx-22" target="irgdS5TOoOP_sUBfPEMx-24">
          <mxGeometry relative="1" as="geometry" />
        </mxCell>
        <mxCell id="irgdS5TOoOP_sUBfPEMx-22" value="NodeJs 服务器" style="whiteSpace=wrap;html=1;rounded=1;hachureGap=4;" vertex="1" parent="1">
          <mxGeometry x="310" y="995" width="120" height="60" as="geometry" />
        </mxCell>
        <mxCell id="irgdS5TOoOP_sUBfPEMx-24" value="解析生成详细" style="whiteSpace=wrap;html=1;rounded=1;hachureGap=4;" vertex="1" parent="1">
          <mxGeometry x="560" y="995" width="120" height="60" as="geometry" />
        </mxCell>
        <mxCell id="irgdS5TOoOP_sUBfPEMx-26" value="新控件编写流程" style="rounded=0;whiteSpace=wrap;html=1;hachureGap=4;pointerEvents=0;" vertex="1" parent="1">
          <mxGeometry x="520" y="-500" width="120" height="40" as="geometry" />
        </mxCell>
        <mxCell id="irgdS5TOoOP_sUBfPEMx-42" value="" style="edgeStyle=none;curved=1;rounded=0;orthogonalLoop=1;jettySize=auto;html=1;endArrow=open;startSize=14;endSize=14;sourcePerimeterSpacing=8;targetPerimeterSpacing=8;" edge="1" parent="1" source="irgdS5TOoOP_sUBfPEMx-28" target="irgdS5TOoOP_sUBfPEMx-41">
          <mxGeometry relative="1" as="geometry">
            <Array as="points">
              <mxPoint x="660" y="-172" />
            </Array>
          </mxGeometry>
        </mxCell>
        <mxCell id="irgdS5TOoOP_sUBfPEMx-64" value="" style="edgeStyle=none;curved=1;rounded=0;orthogonalLoop=1;jettySize=auto;html=1;endArrow=open;startSize=14;endSize=14;sourcePerimeterSpacing=8;targetPerimeterSpacing=8;" edge="1" parent="1" source="irgdS5TOoOP_sUBfPEMx-28" target="irgdS5TOoOP_sUBfPEMx-63">
          <mxGeometry relative="1" as="geometry" />
        </mxCell>
        <mxCell id="irgdS5TOoOP_sUBfPEMx-28" value="数据获取过程" style="whiteSpace=wrap;html=1;rounded=0;hachureGap=4;" vertex="1" parent="1">
          <mxGeometry x="500" y="-140" width="120" height="35" as="geometry" />
        </mxCell>
        <mxCell id="irgdS5TOoOP_sUBfPEMx-34" value="" style="edgeStyle=none;curved=1;rounded=0;orthogonalLoop=1;jettySize=auto;html=1;endArrow=open;startSize=14;endSize=14;sourcePerimeterSpacing=8;targetPerimeterSpacing=8;" edge="1" parent="1" source="irgdS5TOoOP_sUBfPEMx-31" target="irgdS5TOoOP_sUBfPEMx-33">
          <mxGeometry relative="1" as="geometry" />
        </mxCell>
        <mxCell id="irgdS5TOoOP_sUBfPEMx-31" value="数据提交准备" style="whiteSpace=wrap;html=1;rounded=0;hachureGap=4;" vertex="1" parent="1">
          <mxGeometry x="540" y="110" width="120" height="60" as="geometry" />
        </mxCell>
        <mxCell id="irgdS5TOoOP_sUBfPEMx-33" value="目前存在问题（数据状态）" style="whiteSpace=wrap;html=1;rounded=0;hachureGap=4;" vertex="1" parent="1">
          <mxGeometry x="720" y="180" width="120" height="60" as="geometry" />
        </mxCell>
        <mxCell id="irgdS5TOoOP_sUBfPEMx-36" value="Toolbar 工具按钮" style="whiteSpace=wrap;html=1;rounded=0;hachureGap=4;" vertex="1" parent="1">
          <mxGeometry x="520" y="-400" width="120" height="35" as="geometry" />
        </mxCell>
        <mxCell id="irgdS5TOoOP_sUBfPEMx-41" value="表单结构" style="whiteSpace=wrap;html=1;rounded=0;hachureGap=4;" vertex="1" parent="1">
          <mxGeometry x="740" y="-260" width="120" height="35" as="geometry" />
        </mxCell>
        <mxCell id="irgdS5TOoOP_sUBfPEMx-43" value="数据准备" style="whiteSpace=wrap;html=1;rounded=0;hachureGap=4;" vertex="1" parent="1">
          <mxGeometry x="740" y="-210" width="120" height="35" as="geometry" />
        </mxCell>
        <mxCell id="irgdS5TOoOP_sUBfPEMx-45" value="系统变量" style="whiteSpace=wrap;html=1;rounded=0;hachureGap=4;" vertex="1" parent="1">
          <mxGeometry x="740" y="-160" width="120" height="35" as="geometry" />
        </mxCell>
        <mxCell id="irgdS5TOoOP_sUBfPEMx-50" value="" style="edgeStyle=none;curved=1;rounded=0;orthogonalLoop=1;jettySize=auto;html=1;endArrow=open;startSize=14;endSize=14;sourcePerimeterSpacing=8;targetPerimeterSpacing=8;" edge="1" parent="1" source="irgdS5TOoOP_sUBfPEMx-47" target="irgdS5TOoOP_sUBfPEMx-49">
          <mxGeometry relative="1" as="geometry" />
        </mxCell>
        <mxCell id="irgdS5TOoOP_sUBfPEMx-51" value="" style="edgeStyle=none;curved=1;rounded=0;orthogonalLoop=1;jettySize=auto;html=1;endArrow=open;startSize=14;endSize=14;sourcePerimeterSpacing=8;targetPerimeterSpacing=8;" edge="1" parent="1" source="irgdS5TOoOP_sUBfPEMx-47" target="irgdS5TOoOP_sUBfPEMx-49">
          <mxGeometry relative="1" as="geometry" />
        </mxCell>
        <mxCell id="irgdS5TOoOP_sUBfPEMx-53" value="" style="edgeStyle=none;curved=1;rounded=0;orthogonalLoop=1;jettySize=auto;html=1;endArrow=open;startSize=14;endSize=14;sourcePerimeterSpacing=8;targetPerimeterSpacing=8;" edge="1" parent="1" source="irgdS5TOoOP_sUBfPEMx-47" target="irgdS5TOoOP_sUBfPEMx-52">
          <mxGeometry relative="1" as="geometry" />
        </mxCell>
        <mxCell id="irgdS5TOoOP_sUBfPEMx-47" value="缓存数据" style="rounded=0;whiteSpace=wrap;html=1;hachureGap=4;pointerEvents=0;" vertex="1" parent="1">
          <mxGeometry x="330" y="550" width="120" height="30" as="geometry" />
        </mxCell>
        <mxCell id="irgdS5TOoOP_sUBfPEMx-49" value="基础信息（项目）" style="rounded=0;whiteSpace=wrap;html=1;hachureGap=4;pointerEvents=0;" vertex="1" parent="1">
          <mxGeometry x="490" y="530" width="120" height="30" as="geometry" />
        </mxCell>
        <mxCell id="irgdS5TOoOP_sUBfPEMx-52" value="系统变量" style="rounded=0;whiteSpace=wrap;html=1;hachureGap=4;pointerEvents=0;" vertex="1" parent="1">
          <mxGeometry x="490" y="570" width="120" height="30" as="geometry" />
        </mxCell>
        <mxCell id="irgdS5TOoOP_sUBfPEMx-55" value="数据录入" style="rounded=0;whiteSpace=wrap;html=1;hachureGap=4;pointerEvents=0;" vertex="1" parent="1">
          <mxGeometry x="460" y="300" width="120" height="30" as="geometry" />
        </mxCell>
        <mxCell id="irgdS5TOoOP_sUBfPEMx-69" value="" style="edgeStyle=none;curved=1;rounded=0;orthogonalLoop=1;jettySize=auto;html=1;endArrow=open;startSize=14;endSize=14;sourcePerimeterSpacing=8;targetPerimeterSpacing=8;" edge="1" parent="1" source="irgdS5TOoOP_sUBfPEMx-57" target="irgdS5TOoOP_sUBfPEMx-68">
          <mxGeometry relative="1" as="geometry" />
        </mxCell>
        <mxCell id="irgdS5TOoOP_sUBfPEMx-57" value="Nginx 部署" style="rounded=1;whiteSpace=wrap;html=1;hachureGap=4;pointerEvents=0;" vertex="1" parent="1">
          <mxGeometry x="310" y="1130" width="120" height="30" as="geometry" />
        </mxCell>
        <mxCell id="irgdS5TOoOP_sUBfPEMx-59" value="控制" style="whiteSpace=wrap;html=1;rounded=0;hachureGap=4;" vertex="1" parent="1">
          <mxGeometry x="740" y="-60" width="120" height="35" as="geometry" />
        </mxCell>
        <mxCell id="irgdS5TOoOP_sUBfPEMx-81" value="" style="edgeStyle=none;curved=1;rounded=0;orthogonalLoop=1;jettySize=auto;html=1;endArrow=open;startSize=14;endSize=14;sourcePerimeterSpacing=8;targetPerimeterSpacing=8;" edge="1" parent="1" source="irgdS5TOoOP_sUBfPEMx-61" target="irgdS5TOoOP_sUBfPEMx-80">
          <mxGeometry relative="1" as="geometry" />
        </mxCell>
        <mxCell id="irgdS5TOoOP_sUBfPEMx-61" value="赋值" style="whiteSpace=wrap;html=1;rounded=0;hachureGap=4;" vertex="1" parent="1">
          <mxGeometry x="740" y="-10" width="120" height="35" as="geometry" />
        </mxCell>
        <mxCell id="irgdS5TOoOP_sUBfPEMx-83" value="" style="edgeStyle=none;curved=1;rounded=0;orthogonalLoop=1;jettySize=auto;html=1;endArrow=open;startSize=14;endSize=14;sourcePerimeterSpacing=8;targetPerimeterSpacing=8;" edge="1" parent="1" source="irgdS5TOoOP_sUBfPEMx-63" target="irgdS5TOoOP_sUBfPEMx-82">
          <mxGeometry relative="1" as="geometry" />
        </mxCell>
        <mxCell id="irgdS5TOoOP_sUBfPEMx-86" value="" style="edgeStyle=none;curved=1;rounded=0;orthogonalLoop=1;jettySize=auto;html=1;endArrow=open;startSize=14;endSize=14;sourcePerimeterSpacing=8;targetPerimeterSpacing=8;" edge="1" parent="1" source="irgdS5TOoOP_sUBfPEMx-63" target="irgdS5TOoOP_sUBfPEMx-67">
          <mxGeometry relative="1" as="geometry" />
        </mxCell>
        <mxCell id="irgdS5TOoOP_sUBfPEMx-88" value="" style="edgeStyle=none;curved=1;rounded=0;orthogonalLoop=1;jettySize=auto;html=1;endArrow=open;startSize=14;endSize=14;sourcePerimeterSpacing=8;targetPerimeterSpacing=8;" edge="1" parent="1" source="irgdS5TOoOP_sUBfPEMx-63" target="irgdS5TOoOP_sUBfPEMx-87">
          <mxGeometry relative="1" as="geometry" />
        </mxCell>
        <mxCell id="irgdS5TOoOP_sUBfPEMx-63" value="字段遮罩的统一处理" style="whiteSpace=wrap;html=1;rounded=0;hachureGap=4;" vertex="1" parent="1">
          <mxGeometry x="520" y="-70" width="120" height="35" as="geometry" />
        </mxCell>
        <mxCell id="irgdS5TOoOP_sUBfPEMx-79" value="" style="edgeStyle=none;curved=1;rounded=0;orthogonalLoop=1;jettySize=auto;html=1;endArrow=open;startSize=14;endSize=14;sourcePerimeterSpacing=8;targetPerimeterSpacing=8;" edge="1" parent="1" source="irgdS5TOoOP_sUBfPEMx-67" target="irgdS5TOoOP_sUBfPEMx-78">
          <mxGeometry relative="1" as="geometry" />
        </mxCell>
        <mxCell id="irgdS5TOoOP_sUBfPEMx-67" value="原数据映射" style="whiteSpace=wrap;html=1;rounded=0;hachureGap=4;" vertex="1" parent="1">
          <mxGeometry x="740" y="-110" width="120" height="35" as="geometry" />
        </mxCell>
        <mxCell id="irgdS5TOoOP_sUBfPEMx-68" value="DCS PageOffice" style="whiteSpace=wrap;html=1;rounded=1;hachureGap=4;" vertex="1" parent="1">
          <mxGeometry x="540" y="1170" width="120" height="60" as="geometry" />
        </mxCell>
        <mxCell id="irgdS5TOoOP_sUBfPEMx-72" value="老EDC" style="whiteSpace=wrap;html=1;rounded=1;hachureGap=4;" vertex="1" parent="1">
          <mxGeometry x="770" y="955" width="120" height="40" as="geometry" />
        </mxCell>
        <mxCell id="irgdS5TOoOP_sUBfPEMx-74" value="域名/服务器 账号" style="whiteSpace=wrap;html=1;rounded=1;hachureGap=4;" vertex="1" parent="1">
          <mxGeometry x="770" y="840" width="120" height="40" as="geometry" />
        </mxCell>
        <mxCell id="irgdS5TOoOP_sUBfPEMx-76" value="模板表单处理（LB 、Image ）" style="rounded=0;whiteSpace=wrap;html=1;hachureGap=4;pointerEvents=0;" vertex="1" parent="1">
          <mxGeometry x="520" y="-310" width="120" height="40" as="geometry" />
        </mxCell>
        <mxCell id="irgdS5TOoOP_sUBfPEMx-78" value="OCR数据映射" style="whiteSpace=wrap;html=1;rounded=0;hachureGap=4;" vertex="1" parent="1">
          <mxGeometry x="940" y="-110" width="120" height="35" as="geometry" />
        </mxCell>
        <mxCell id="irgdS5TOoOP_sUBfPEMx-80" value="质疑信息" style="ellipse;whiteSpace=wrap;html=1;rounded=0;hachureGap=4;" vertex="1" parent="1">
          <mxGeometry x="740" y="50" width="120" height="60" as="geometry" />
        </mxCell>
        <mxCell id="irgdS5TOoOP_sUBfPEMx-82" value="填写指南" style="whiteSpace=wrap;html=1;rounded=0;hachureGap=4;" vertex="1" parent="1">
          <mxGeometry x="470" y="-10" width="100" height="35" as="geometry" />
        </mxCell>
        <mxCell id="irgdS5TOoOP_sUBfPEMx-84" value="SVN服务器" style="rounded=1;whiteSpace=wrap;html=1;hachureGap=4;pointerEvents=0;" vertex="1" parent="1">
          <mxGeometry x="310" y="1240" width="120" height="30" as="geometry" />
        </mxCell>
        <mxCell id="irgdS5TOoOP_sUBfPEMx-87" value="灰化" style="whiteSpace=wrap;html=1;rounded=0;hachureGap=4;" vertex="1" parent="1">
          <mxGeometry x="610" y="-10" width="60" height="35" as="geometry" />
        </mxCell>
      </root>
    </mxGraphModel>
  </diagram>
</mxfile>
